<?xml version="1.0" encoding="UTF-8"?>
<svg version="1.1" xmlns="http://www.w3.org/2000/svg" width="512" height="512">
<path d="M0 0 C0.73702148 0.35819824 1.47404297 0.71639648 2.23339844 1.08544922 C33.35162599 16.419984 62.70235759 39.55204832 84 67 C85.01789143 68.2776129 86.03614582 69.55493668 87.0546875 70.83203125 C94.88964276 80.75335513 101.76009426 91.00835742 108 102 C108.68425049 103.19786133 108.68425049 103.19786133 109.38232422 104.41992188 C121.36670012 125.64531286 129.75201368 148.21558686 135 172 C135.19819336 172.8854248 135.39638672 173.77084961 135.60058594 174.68310547 C147.64828953 229.95423133 139.65829391 288.33630949 115 339 C114.64180176 339.73702148 114.28360352 340.47404297 113.91455078 341.23339844 C98.56736823 372.37729199 75.43013874 401.64615782 48 423 C46.7212575 424.01941 45.4426186 425.03894997 44.1640625 426.05859375 C34.24339679 433.89131218 23.99002327 440.76101354 13 447 C11.80213867 447.68425049 11.80213867 447.68425049 10.58007812 448.38232422 C-10.65105422 460.36994183 -33.21482673 468.7350638 -57 474 C-57.87479004 474.19819336 -58.74958008 474.39638672 -59.65087891 474.60058594 C-122.6636629 488.53554059 -191.35813559 476.13091599 -246 442 C-255.38075944 435.86603579 -264.41710488 429.20803011 -273 422 C-273.78189697 421.3512793 -273.78189697 421.3512793 -274.57958984 420.68945312 C-286.91186479 410.44125884 -298.12409883 399.68611695 -308 387 C-309.01941 385.7212575 -310.03894997 384.4426186 -311.05859375 383.1640625 C-318.89131218 373.24339679 -325.76101354 362.99002327 -332 352 C-332.68425049 350.80213867 -332.68425049 350.80213867 -333.38232422 349.58007812 C-366.59606453 290.75560281 -372.93698357 220.71986901 -355 156 C-344.96738462 120.56899371 -326.59254364 87.37728755 -302 60 C-301.53464844 59.47970215 -301.06929687 58.9594043 -300.58984375 58.42333984 C-291.65057931 48.45191919 -282.4754331 39.37145644 -272 31 C-271.24332031 30.36449219 -270.48664063 29.72898438 -269.70703125 29.07421875 C-195.12377265 -32.92873117 -86.066548 -41.88905733 0 0 Z " fill="#77D6ED" transform="translate(368,29)"/>
<path d="M0 0 C0.73702148 0.35819824 1.47404297 0.71639648 2.23339844 1.08544922 C33.35162599 16.419984 62.70235759 39.55204832 84 67 C85.01789143 68.2776129 86.03614582 69.55493668 87.0546875 70.83203125 C94.88964276 80.75335513 101.76009426 91.00835742 108 102 C108.68425049 103.19786133 108.68425049 103.19786133 109.38232422 104.41992188 C121.36670012 125.64531286 129.75201368 148.21558686 135 172 C135.19819336 172.8854248 135.39638672 173.77084961 135.60058594 174.68310547 C147.64828953 229.95423133 139.65829391 288.33630949 115 339 C114.64180176 339.73702148 114.28360352 340.47404297 113.91455078 341.23339844 C98.56736823 372.37729199 75.43013874 401.64615782 48 423 C46.7212575 424.01941 45.4426186 425.03894997 44.1640625 426.05859375 C34.24339679 433.89131218 23.99002327 440.76101354 13 447 C11.80213867 447.68425049 11.80213867 447.68425049 10.58007812 448.38232422 C-10.65105422 460.36994183 -33.21482673 468.7350638 -57 474 C-57.87479004 474.19819336 -58.74958008 474.39638672 -59.65087891 474.60058594 C-122.6636629 488.53554059 -191.35813559 476.13091599 -246 442 C-255.38075944 435.86603579 -264.41710488 429.20803011 -273 422 C-273.78189697 421.3512793 -273.78189697 421.3512793 -274.57958984 420.68945312 C-286.91186479 410.44125884 -298.12409883 399.68611695 -308 387 C-309.01941 385.7212575 -310.03894997 384.4426186 -311.05859375 383.1640625 C-318.89131218 373.24339679 -325.76101354 362.99002327 -332 352 C-332.68425049 350.80213867 -332.68425049 350.80213867 -333.38232422 349.58007812 C-366.59606453 290.75560281 -372.93698357 220.71986901 -355 156 C-344.96738462 120.56899371 -326.59254364 87.37728755 -302 60 C-301.53464844 59.47970215 -301.06929687 58.9594043 -300.58984375 58.42333984 C-291.65057931 48.45191919 -282.4754331 39.37145644 -272 31 C-271.24332031 30.36449219 -270.48664063 29.72898438 -269.70703125 29.07421875 C-195.12377265 -32.92873117 -86.066548 -41.88905733 0 0 Z M-250 47 C-251.3468976 49.69379521 -251.12921379 51.77401306 -251.13422108 54.79191303 C-251.13867892 56.03290046 -251.14313676 57.27388789 -251.14772969 58.552481 C-251.14764039 59.94232071 -251.14745052 61.33216043 -251.14717102 62.72200012 C-251.15046865 64.18859269 -251.15419401 65.65518436 -251.1583125 67.12177485 C-251.16835195 71.16656473 -251.17205241 75.21133977 -251.17470181 79.25614035 C-251.17859907 83.61275785 -251.18817775 87.96936353 -251.19691467 92.32597351 C-251.21669476 102.85398758 -251.22674694 113.38200263 -251.23564246 123.91003063 C-251.24002256 128.86397317 -251.24539006 133.81791463 -251.25063133 138.77185631 C-251.26764463 155.23293874 -251.28214 171.69402049 -251.28938007 188.15511036 C-251.29129007 192.42868361 -251.29321038 196.70225685 -251.29516602 200.97583008 C-251.29564976 202.03804638 -251.2961335 203.10026269 -251.2966319 204.19466736 C-251.30493666 221.41155557 -251.33028065 238.62837439 -251.36274669 255.84523229 C-251.39578398 273.50854499 -251.41382579 291.17182239 -251.41702431 308.83516616 C-251.41919243 318.75773175 -251.42798512 328.68019616 -251.45348549 338.6027317 C-251.47514699 347.05117658 -251.48326539 355.49949569 -251.47351871 363.94796518 C-251.46896084 368.26048928 -251.4709461 372.57275366 -251.49028015 376.88524246 C-251.50781901 380.83129167 -251.50699032 384.77688989 -251.49138286 388.72294327 C-251.48899259 390.15230894 -251.49340339 391.58170508 -251.50521151 393.01102398 C-251.52024729 394.95081522 -251.50831351 396.89075982 -251.49498463 398.83056355 C-251.49596144 399.9090243 -251.49693824 400.98748505 -251.49794465 402.09862643 C-250.87392124 405.73462296 -249.53634453 407.366219 -247 410 C-243.85314601 412.09790266 -243.13761997 412.25055283 -239.55307198 412.25447559 C-238.63753268 412.26030779 -237.72199339 412.26613998 -236.77871048 412.27214891 C-235.77143115 412.26836958 -234.76415182 412.26459026 -233.72634888 412.26069641 C-232.65742271 412.26452196 -231.58849655 412.26834751 -230.48717868 412.27228898 C-226.88739924 412.28264909 -223.28777841 412.27862108 -219.68798828 412.2746582 C-217.11440889 412.27900303 -214.5408308 412.2841854 -211.96725464 412.29014587 C-205.69142807 412.30291172 -199.41564425 412.30468419 -193.13980688 412.30234561 C-188.03932477 412.30056424 -182.93885565 412.3023082 -177.83837509 412.30657005 C-177.11308053 412.30716524 -176.38778597 412.30776043 -175.64051279 412.30837366 C-174.16717204 412.30958538 -172.6938313 412.31079952 -171.22049056 412.31201603 C-157.39518995 412.32289902 -143.56991371 412.32072561 -129.74461173 412.31463119 C-117.09315726 412.30946245 -104.44177979 412.32071496 -91.79034056 412.33972941 C-78.80524164 412.35909595 -65.82017918 412.36736582 -52.83506572 412.36360615 C-45.54278014 412.36169216 -38.2505601 412.36420078 -30.95828629 412.37832069 C-24.10141723 412.39146291 -17.24470498 412.38899052 -10.38783646 412.37590981 C-7.86789397 412.37353621 -5.34794074 412.37630652 -2.82801056 412.38453293 C0.60563478 412.3949358 4.03875555 412.38695131 7.47238159 412.3742218 C8.47519948 412.38159609 9.47801737 412.38897037 10.51122367 412.39656812 C17.16054056 412.34452539 20.50446456 411.52723228 25.28075409 406.6902771 C28.44999453 401.4638138 27.54848941 394.85212047 27.50793457 388.95556641 C27.5125448 387.50272814 27.51889854 386.04989455 27.52684355 384.59707069 C27.54354351 380.60872938 27.53528763 376.62077087 27.52289867 372.63242817 C27.51385319 368.32969378 27.52781541 364.02702549 27.53881836 359.7243042 C27.55661354 351.29684322 27.55275916 342.86952467 27.5411678 334.44205809 C27.53213768 327.59346058 27.53090765 320.74490302 27.53526306 313.89630127 C27.53618246 312.43472845 27.53618246 312.43472845 27.53712043 310.94362891 C27.53839932 308.96424849 27.53969617 306.98486808 27.5410108 305.00548768 C27.55241952 286.44075786 27.5392983 267.87610703 27.51780933 249.31139016 C27.49993809 233.37877784 27.50304211 217.44628209 27.52148438 201.51367188 C27.54288592 183.01579811 27.55132086 164.51799359 27.53903532 146.02010918 C27.53776111 144.04797237 27.53650363 142.07583556 27.53526306 140.10369873 C27.53464596 139.13334612 27.53402886 138.1629935 27.53339306 137.16323626 C27.52993801 130.32212515 27.53577184 123.48105793 27.54518127 116.63995361 C27.55639467 108.30396728 27.55337509 99.96813162 27.5320583 91.63216257 C27.52153899 87.37823346 27.51744097 83.12455566 27.53065491 78.87062836 C27.54256655 74.97708785 27.53603694 71.08403181 27.5147447 67.19053531 C27.51027338 65.78147001 27.51255688 64.37236385 27.52224785 62.96332479 C27.84369888 54.82700818 27.84369888 54.82700818 25.28075409 47.3097229 C20.51203905 42.48043842 17.16378158 41.65487474 10.52520996 41.58944559 C9.52443844 41.59477352 8.52366691 41.60010144 7.49256897 41.60559082 C6.42263952 41.59949972 5.35271007 41.59340861 4.25035852 41.58713293 C0.6590672 41.57046115 -2.9318712 41.57528483 -6.52319336 41.58007812 C-9.09544749 41.57274028 -11.66769831 41.56415489 -14.23994446 41.55441284 C-20.50514738 41.53336095 -26.77025776 41.52881782 -33.03549188 41.53060073 C-38.12781964 41.53190839 -43.22011854 41.528104 -48.31244087 41.52067566 C-49.77931215 41.51857647 -51.24618343 41.51647887 -52.71305472 41.51438284 C-53.80820669 41.51281755 -53.80820669 41.51281755 -54.92548294 41.51122063 C-68.73270827 41.49231949 -82.53988047 41.49336817 -96.34711338 41.50018996 C-108.97841819 41.50576628 -121.60952024 41.48493609 -134.24077766 41.45182949 C-147.21126475 41.41809765 -160.18165468 41.40292345 -173.15218645 41.40754652 C-180.433904 41.40979161 -187.7154341 41.4045423 -194.99711418 41.37965393 C-201.84343102 41.35645277 -208.68931852 41.35921732 -215.53564262 41.37958145 C-218.05033189 41.38300154 -220.56504932 41.37785977 -223.07970047 41.36359787 C-226.50882629 41.34548931 -229.93650424 41.35809393 -233.36558533 41.37854004 C-234.86339654 41.35976327 -234.86339654 41.35976327 -236.39146656 41.34060717 C-242.69874026 41.42140858 -245.66723599 42.32697214 -250 47 Z " fill="#76D6ED" transform="translate(368,29)"/>
<path d="M0 0 C0.91553929 -0.00583219 1.83107858 -0.01166439 2.77436149 -0.01767331 C3.78164082 -0.01389399 4.78892015 -0.01011467 5.8267231 -0.00622082 C6.89564926 -0.01004636 7.96457543 -0.01387191 9.06589329 -0.01781338 C12.66567273 -0.02817349 16.26529356 -0.02414549 19.86508369 -0.02018261 C22.43866309 -0.02452743 25.01224118 -0.02970981 27.58581734 -0.03567028 C33.86164391 -0.04843613 40.13742773 -0.0502086 46.41326509 -0.04787002 C51.51374721 -0.04608865 56.61421632 -0.0478326 61.71469688 -0.05209446 C62.80263873 -0.05298724 62.80263873 -0.05298724 63.91255919 -0.05389806 C65.38589993 -0.05510979 66.85924068 -0.05632392 68.33258142 -0.05754044 C82.15788203 -0.06842343 95.98315826 -0.06625001 109.80846025 -0.06015559 C122.45991472 -0.05498686 135.11129218 -0.06623936 147.76273142 -0.08525381 C160.74783033 -0.10462035 173.7328928 -0.11289023 186.71800625 -0.10913056 C194.01029183 -0.10721657 201.30251187 -0.10972518 208.59478569 -0.1238451 C215.45165475 -0.13698732 222.30836699 -0.13451493 229.16523552 -0.12143421 C231.68517801 -0.11906062 234.20513124 -0.12183093 236.72506142 -0.13005733 C240.15870676 -0.14046021 243.59182752 -0.13247572 247.02545357 -0.11974621 C248.02827145 -0.12712049 249.03108934 -0.13449478 250.06429565 -0.14209253 C256.71361253 -0.0900498 260.05753653 0.72724331 264.83382607 5.56419849 C268.0030665 10.7906618 267.10156139 17.40235512 267.06100655 23.29890919 C267.06561677 24.75174745 267.07197051 26.20458105 267.07991552 27.6574049 C267.09661549 31.64574621 267.0883596 35.63370473 267.07597065 39.62204742 C267.06692516 43.92478181 267.08088739 48.22745011 267.09189034 52.53017139 C267.10968552 60.95763237 267.10583113 69.38495093 267.09423977 77.81241751 C267.08520965 84.66101501 267.08397962 91.50957258 267.08833504 98.35817432 C267.08894797 99.3325562 267.0895609 100.30693808 267.09019241 101.31084669 C267.0914713 103.29022711 267.09276815 105.26960752 267.09408277 107.24898791 C267.1054915 125.81371773 267.09237028 144.37836857 267.07088131 162.94308543 C267.05301006 178.87569775 267.05611409 194.8081935 267.07455635 210.74080372 C267.09595789 229.23867748 267.10439283 247.736482 267.0921073 266.23436642 C267.09083309 268.20650322 267.0895756 270.17864004 267.08833504 272.15077686 C267.08740938 273.60630579 267.08740938 273.60630579 267.08646503 275.09123933 C267.08300998 281.93235044 267.08884381 288.77341767 267.09825325 295.61452198 C267.10946665 303.95050832 267.10644707 312.28634397 267.08513027 320.62231302 C267.07461096 324.87624213 267.07051295 329.12991993 267.08372688 333.38384724 C267.09563852 337.27738775 267.08910892 341.17044379 267.06781667 345.06394029 C267.06334535 346.47300559 267.06562885 347.88211174 267.07531983 349.29115081 C267.15046745 361.12432902 267.15046745 361.12432902 264.83382607 364.94475269 C260.06511103 369.77403717 256.71685355 370.59960085 250.07828194 370.66503 C248.57712465 370.65703811 248.57712465 370.65703811 247.04564095 370.64888477 C245.9757115 370.65497588 244.90578205 370.66106698 243.8034305 370.66734266 C240.21213917 370.68401445 236.62120078 370.67919077 233.02987862 370.67439747 C230.45762449 370.68173531 227.88537366 370.6903207 225.31312752 370.70006275 C219.04792459 370.72111465 212.78281421 370.72565777 206.5175801 370.72387487 C201.42525233 370.7225672 196.33295344 370.72637159 191.2406311 370.73379993 C189.77375982 370.73589913 188.30688854 370.73799673 186.84001726 370.74009275 C186.10991595 370.74113628 185.37981463 370.74217981 184.62758904 370.74325496 C170.82036371 370.7621561 157.01319151 370.76110742 143.2059586 370.75428563 C130.57465378 370.74870931 117.94355174 370.76953951 105.31229431 370.8026461 C92.34180723 370.83637795 79.3714173 370.85155214 66.40088552 370.84692907 C59.11916798 370.84468398 51.83763788 370.8499333 44.55595779 370.87482166 C37.70964096 370.89802282 30.86375345 370.89525827 24.01742935 370.87489414 C21.50274008 370.87147405 18.98802266 370.87661582 16.47337151 370.89087772 C13.04424569 370.90898628 9.61656774 370.89638166 6.18748665 370.87593555 C5.18894584 370.8884534 4.19040504 370.90097125 3.16160542 370.91386843 C-1.33687042 370.85623922 -4.46531128 370.72856569 -8.04907894 367.84063435 C-11.49143925 364.12793603 -11.57290977 362.42842135 -11.5811491 357.46256256 C-11.58560695 356.22157513 -11.59006479 354.98058771 -11.59465772 353.7019946 C-11.59456841 352.31215488 -11.59437854 350.92231516 -11.59409904 349.53247547 C-11.59739668 348.0658829 -11.60112203 346.59929124 -11.60524052 345.13270074 C-11.61527998 341.08791086 -11.61898043 337.04313582 -11.62162983 332.99833524 C-11.6255271 328.64171774 -11.63510578 324.28511206 -11.6438427 319.92850208 C-11.66362278 309.40048802 -11.67367496 298.87247297 -11.68257049 288.34444496 C-11.68695058 283.39050243 -11.69231809 278.43656097 -11.69755936 273.48261929 C-11.71457266 257.02153686 -11.72906803 240.56045511 -11.7363081 224.09936523 C-11.73821809 219.82579199 -11.74013841 215.55221874 -11.74209404 211.27864552 C-11.74257778 210.21642921 -11.74306152 209.15421291 -11.74355992 208.05980823 C-11.75186468 190.84292003 -11.77720867 173.6261012 -11.80967472 156.40924331 C-11.842712 138.74593061 -11.86075381 121.08265321 -11.86395234 103.41930944 C-11.86612046 93.49674384 -11.87491314 83.57427944 -11.90041351 73.65174389 C-11.92207501 65.20329902 -11.93019342 56.7549799 -11.92044673 48.30651041 C-11.91588886 43.99398631 -11.91787412 39.68172194 -11.93720818 35.36923313 C-11.95474703 31.42318393 -11.95391835 27.4775857 -11.93831088 23.53153232 C-11.93592061 22.10216666 -11.94033141 20.67277051 -11.95213953 19.24345162 C-11.96717532 17.30366037 -11.95524153 15.36371577 -11.94191265 13.42391205 C-11.94288946 12.34545129 -11.94386627 11.26699054 -11.94487268 10.15584916 C-11.32084927 6.51985264 -9.98327256 4.8882566 -7.44692802 2.25447559 C-4.30007403 0.15657293 -3.584548 0.00392277 0 0 Z M11.55307198 23.25447559 C11.55307198 130.17447559 11.55307198 237.09447559 11.55307198 347.25447559 C87.78307198 347.25447559 164.01307198 347.25447559 242.55307198 347.25447559 C242.55307198 240.33447559 242.55307198 133.41447559 242.55307198 23.25447559 C166.32307198 23.25447559 90.09307198 23.25447559 11.55307198 23.25447559 Z " fill="#FEFEFE" transform="translate(128.446928024292,70.7455244064331)"/>
<path d="M0 0 C0.69918061 -0.00709439 1.39836122 -0.01418877 2.11872911 -0.02149814 C4.44979698 -0.03902987 6.7791866 -0.02100031 9.11022949 -0.00291443 C10.78609474 -0.00805515 12.46195458 -0.01533758 14.13780212 -0.02459717 C18.68129718 -0.04310011 23.22420485 -0.03017972 27.7676754 -0.01050687 C32.52546232 0.00589013 37.28321234 -0.00293473 42.04101562 -0.00802612 C50.03049084 -0.0125459 58.01973185 0.0033156 66.00915527 0.03126526 C75.24216905 0.06331664 84.47476044 0.06330105 93.7078042 0.04605049 C102.59468023 0.0301792 111.4814016 0.03692284 120.36827087 0.0539875 C124.14806746 0.06085482 127.92773996 0.05982882 131.70753479 0.05244255 C136.15970834 0.0447737 140.61140198 0.05692529 145.06349373 0.08429146 C146.69609719 0.0911701 148.32874552 0.09127882 149.96134758 0.08407593 C152.19278238 0.07536646 154.42274114 0.09135996 156.65405273 0.11352539 C157.90174187 0.11633231 159.149431 0.11913923 160.43492889 0.12203121 C165.51177218 0.87958144 169.56375924 3.67791835 172.82702637 7.62818909 C173.99944486 11.14544457 173.97569078 13.95357663 174.00402832 17.66651917 C174.01059952 18.37908371 174.01717072 19.09164825 174.02394104 19.82580566 C174.04364571 22.18311166 174.05533012 24.54035405 174.06530762 26.89772034 C174.06938314 27.70388983 174.07345867 28.51005932 174.0776577 29.34065819 C174.09850612 33.60747902 174.11281327 37.87426781 174.12219238 42.14112854 C174.13325583 46.54285768 174.16765811 50.94408117 174.20736408 55.3456316 C174.23353666 58.73518805 174.24188475 62.12462409 174.24547386 65.51427269 C174.25033799 67.13655196 174.26194711 68.75882591 174.28051186 70.38100624 C174.30491875 72.65496795 174.30393624 74.92762221 174.29699707 77.20167542 C174.30286331 78.49390518 174.30872955 79.78613495 174.31477356 81.11752319 C173.73089911 85.32008583 172.54104605 87.39087169 169.82702637 90.62818909 C165.75503027 93.67790893 162.73236822 94.00774082 157.69837952 94.02259827 C156.99188623 94.02868937 156.28539294 94.03478047 155.55749077 94.04105616 C153.1960809 94.05767192 150.83521109 94.05291257 148.47375488 94.04811096 C146.77833497 94.0554521 145.08292005 94.06403847 143.38751221 94.07377625 C138.78626824 94.09599535 134.18520334 94.09892276 129.58391309 94.09702873 C125.7418941 94.09690906 121.89991309 94.10547186 118.05790466 94.11380625 C108.99385892 94.13304145 99.92990528 94.13592358 90.86584473 94.12916565 C81.51637687 94.12252321 72.16730337 94.14539707 62.8179155 94.18247938 C54.78888949 94.21316879 46.7599904 94.22453728 38.7309069 94.22064257 C33.93630879 94.21857442 29.14201761 94.22406448 24.34747505 94.24853516 C19.83865553 94.27078749 15.33047765 94.26893729 10.82165527 94.24860764 C9.16806986 94.24519498 7.51444138 94.25029778 5.86091423 94.26459122 C3.60074727 94.28277874 1.34275836 94.27004213 -0.91734314 94.24964905 C-2.18107978 94.25036156 -3.44481642 94.25107407 -4.74684811 94.25180817 C-9.70791551 93.34880089 -12.539508 90.87119162 -15.5308075 86.76367188 C-16.4730033 83.63045944 -16.43596173 80.72953433 -16.44763184 77.46046448 C-16.45274277 76.74614761 -16.4578537 76.03183075 -16.46311951 75.29586792 C-16.47699768 72.93910804 -16.47606013 70.58264118 -16.47375488 68.22584534 C-16.47764277 66.58444104 -16.48197763 64.94303774 -16.48674011 63.30163574 C-16.49419847 59.86268349 -16.49391382 56.4238339 -16.48864746 52.98487854 C-16.48285303 48.58202328 -16.49978483 44.17958872 -16.52299213 39.77680302 C-16.53773731 36.38727367 -16.53860012 32.99784546 -16.53548241 29.60828972 C-16.53599522 27.98521021 -16.54122542 26.36212497 -16.55129433 24.73907661 C-16.56365705 22.46754386 -16.55686875 20.19682829 -16.54528809 17.92530823 C-16.54591751 16.63387405 -16.54654694 15.34243988 -16.54719543 14.01187134 C-15.91394803 8.28610123 -13.29826978 5.29405218 -8.88455468 1.70033139 C-5.99394263 -0.1103614 -3.35562171 0.00157686 0 0 Z " fill="#FDFEFE" transform="translate(177.1729736328125,116.37181091308594)"/>
<path d="M0 0 C46.86 0 93.72 0 142 0 C142 15.18 142 30.36 142 46 C95.14 46 48.28 46 0 46 C0 30.82 0 15.64 0 0 Z " fill="#77D6ED" transform="translate(185,140)"/>
<path d="M0 0 C7.92 0 15.84 0 24 0 C24 29.04 24 58.08 24 88 C16.08 88 8.16 88 0 88 C0 58.96 0 29.92 0 0 Z " fill="#FBFEFE" transform="translate(321,302)"/>
<path d="M0 0 C25.08 0 50.16 0 76 0 C76 7.92 76 15.84 76 24 C50.92 24 25.84 24 0 24 C0 16.08 0 8.16 0 0 Z " fill="#FCFEFE" transform="translate(167,366)"/>
<path d="M0 0 C7.92 0 15.84 0 24 0 C24 7.92 24 15.84 24 24 C16.08 24 8.16 24 0 24 C0 16.08 0 8.16 0 0 Z " fill="#FAFDFE" transform="translate(270,366)"/>
<path d="M0 0 C7.92 0 15.84 0 24 0 C24 7.92 24 15.84 24 24 C16.08 24 8.16 24 0 24 C0 16.08 0 8.16 0 0 Z " fill="#FAFDFE" transform="translate(270,302)"/>
<path d="M0 0 C7.92 0 15.84 0 24 0 C24 7.92 24 15.84 24 24 C16.08 24 8.16 24 0 24 C0 16.08 0 8.16 0 0 Z " fill="#FAFDFE" transform="translate(218,302)"/>
<path d="M0 0 C7.92 0 15.84 0 24 0 C24 7.92 24 15.84 24 24 C16.08 24 8.16 24 0 24 C0 16.08 0 8.16 0 0 Z " fill="#FAFDFE" transform="translate(167,302)"/>
<path d="M0 0 C7.92 0 15.84 0 24 0 C24 7.92 24 15.84 24 24 C16.08 24 8.16 24 0 24 C0 16.08 0 8.16 0 0 Z " fill="#FAFDFE" transform="translate(321,239)"/>
<path d="M0 0 C7.92 0 15.84 0 24 0 C24 7.92 24 15.84 24 24 C16.08 24 8.16 24 0 24 C0 16.08 0 8.16 0 0 Z " fill="#FAFDFE" transform="translate(270,239)"/>
<path d="M0 0 C7.92 0 15.84 0 24 0 C24 7.92 24 15.84 24 24 C16.08 24 8.16 24 0 24 C0 16.08 0 8.16 0 0 Z " fill="#FAFDFE" transform="translate(218,239)"/>
<path d="M0 0 C7.92 0 15.84 0 24 0 C24 7.92 24 15.84 24 24 C16.08 24 8.16 24 0 24 C0 16.08 0 8.16 0 0 Z " fill="#FAFDFE" transform="translate(167,239)"/>
</svg>
